<svg xmlns="http://www.w3.org/2000/svg" width="20" height="20" viewBox="0 0 20 20" fill="#0f3782">
<path d="M10 20C8.61667 20 7.31667 19.7373 6.1 19.212C4.88333 18.6867 3.825 17.9743 2.925 17.075C2.025 16.175 1.31267 15.1167 0.788 13.9C0.263333 12.6833 0.000666667 11.3833 0 10C0 8.61667 0.262667 7.31667 0.788 6.1C1.31333 4.88333 2.02567 3.825 2.925 2.925C3.825 2.025 4.88333 1.31267 6.1 0.788C7.31667 0.263333 8.61667 0.000666667 10 0C11.3833 0 12.6833 0.262667 13.9 0.788C15.1167 1.31333 16.175 2.02567 17.075 2.925C17.975 3.825 18.6877 4.88333 19.213 6.1C19.7383 7.31667 20.0007 8.61667 20 10C20 11.3833 19.7373 12.6833 19.212 13.9C18.6867 15.1167 17.9743 16.175 17.075 17.075C16.175 17.975 15.1167 18.6877 13.9 19.213C12.6833 19.7383 11.3833 20.0007 10 20ZM10 18C12.2333 18 14.125 17.225 15.675 15.675C17.225 14.125 18 12.2333 18 10C18 7.76667 17.225 5.875 15.675 4.325C14.125 2.775 12.2333 2 10 2C7.76667 2 5.875 2.775 4.325 4.325C2.775 5.875 2 7.76667 2 10C2 12.2333 2.775 14.125 4.325 15.675C5.875 17.225 7.76667 18 10 18Z" fill="#0f3782"/>
<path d="M10.75 4C10.75 3.58579 10.4142 3.25 10 3.25C9.58579 3.25 9.25 3.58579 9.25 4L10.75 4ZM9.46967 15.5303C9.76256 15.8232 10.2374 15.8232 10.5303 15.5303L15.3033 10.7574C15.5962 10.4645 15.5962 9.98959 15.3033 9.6967C15.0104 9.40381 14.5355 9.40381 14.2426 9.6967L10 13.9393L5.75736 9.6967C5.46447 9.40381 4.98959 9.40381 4.6967 9.6967C4.40381 9.98959 4.40381 10.4645 4.6967 10.7574L9.46967 15.5303ZM9.25 4L9.25 15L10.75 15L10.75 4L9.25 4Z" fill="#0f3782"/>
</svg>