<svg xmlns="http://www.w3.org/2000/svg" height="800" width="1200" viewBox="-47.106975 -24.007 408.26045 144.042"><defs><linearGradient gradientUnits="userSpaceOnUse" gradientTransform="translate(-319.7 99.82) scale(.29002)" y2="283" y1="48.996" x2="604.31" x1="370.3" id="a"><stop offset=".12" stop-color="#00AAF4"/><stop offset=".88" stop-color="#00D258"/></linearGradient></defs><g stroke-width=".29"><path fill="#00d258" d="M261.59 48.008l25.888-29.275c3.7102-4.1939 3.3135-10.603-.8791-14.31-4.1926-3.7093-10.604-3.3148-14.312.8786l-24.229 27.402-24.228-27.402c-3.7102-4.194-10.116-4.5882-14.312-.8786-4.1926 3.7093-4.5884 10.116-.879 14.31l25.885 29.275-25.888 29.275c-3.7103 4.1939-3.3136 10.603.879 14.31 4.1926 3.7093 10.603 3.3149 14.312-.8786l24.228-27.402 24.229 27.402c3.7102 4.1939 10.116 4.5882 14.312.8786 4.1926-3.7093 4.588-10.116.8791-14.31z" class="st0"/><path fill="url(#a)" d="M-178.37 195.99c-26.474 0-48.014-21.537-48.014-48.014 0-26.477 21.54-48.014 48.014-48.014 26.473 0 48.014 21.537 48.014 48.014 0 26.477-21.54 48.014-48.014 48.014zm0-75.749c-15.293 0-27.735 12.442-27.735 27.735 0 15.292 12.442 27.735 27.735 27.735 15.292 0 27.735-12.442 27.735-27.735s-12.442-27.735-27.735-27.735z" class="st1" transform="translate(319.704 -99.962)"/><path fill="#00aaf4" d="M48.014 96.028C21.537 96.028 0 74.487 0 48.014 0 21.541 21.537 0 48.014 0c8.602 0 17.045 2.3055 24.417 6.6647 4.8201 2.851 6.4151 9.0691 3.5659 13.889-2.8491 4.8202-9.069 6.4154-13.889 3.5642-4.2467-2.5115-9.1214-3.84-14.092-3.84-15.293 0-27.735 12.442-27.735 27.735s12.442 27.735 27.735 27.735c4.9711 0 9.8462-1.3286 14.092-3.84 4.8201-2.851 11.038-1.256 13.889 3.5641 2.8492 4.8202 1.2578 11.038-3.5659 13.889-7.3726 4.3589-15.816 6.6648-24.417 6.6648z" class="st2"/></g><path fill="#00d258" d="M305.759 76.738c1.3922 0 2.7515.359 4.0778 1.0772 1.3263.7108 2.3595 1.733 3.0996 3.0666.74 1.3263 1.1101 2.7112 1.1101 4.1547 0 1.4289-.3664 2.8028-1.0991 4.1218-.7254 1.319-1.7476 2.3448-3.0666 3.0776-1.3116.7254-2.6855 1.0881-4.1217 1.0881-1.4362 0-2.8138-.3627-4.1327-1.0881-1.3116-.7328-2.3338-1.7586-3.0666-3.0776-.7328-1.319-1.0991-2.6929-1.0991-4.1218 0-1.4435.37-2.8284 1.1101-4.1547.7474-1.3336 1.7843-2.3558 3.1105-3.0666 1.3263-.7181 2.6855-1.0772 4.0778-1.0772zm0 1.3739c-1.1651 0-2.3009.3004-3.4073.9013-1.0991.5935-1.9601 1.4472-2.583 2.561-.6228 1.1065-.9343 2.2606-.9343 3.4623 0 1.1944.3041 2.3412.9123 3.4403.6155 1.0918 1.4728 1.9455 2.572 2.561 1.0991.6082 2.246.9123 3.4403.9123 1.1944 0 2.3412-.3041 3.4403-.9123 1.0991-.6155 1.9528-1.4692 2.561-2.561.6082-1.0991.9123-2.246.9123-3.4403 0-1.2017-.3114-2.3558-.9343-3.4623-.6155-1.1138-1.4765-1.9674-2.583-2.561-1.1065-.6009-2.2386-.9013-3.3963-.9013zm-3.304 11.508v-8.925h3.0666c1.0478 0 1.5724.0843 2.0413.2528.469.1612.6923.447.9708.8573.2784.4104.4176.8464.4176 1.308 0 1.0896-.1963 1.973-1.6226 2.706l2.6223 3.801h-1.7586c-.9985-1.4726-2.4473-3.5323-2.4473-3.5323h-1.8502V89.62zm1.4399-4.7632h1.7476c.8353 0 1.4088-.2721 1.6233-.5981.2118-.3218.31-.668.308-1.0247-.0012-.2457-.0732-.4983-.2197-.7035-.1466-.2125-.3518-.37-.6156-.4726-.2564-.1026-.5025-.1539-1.206-.1539h-1.6377z"/></svg>