<svg xmlns="http://www.w3.org/2000/svg" xmlns:xlink="http://www.w3.org/1999/xlink" width="167" height="54" viewBox="0 0 167 54">
    <defs>
        <path id="a" d="M.232.168h24.669v39.788H.232z"/>
        <path id="c" d="M0 53.735h166.9V.337H0z"/>
    </defs>
    <g fill="none" fill-rule="evenodd">
        <g transform="translate(31.54 .168)">
            <mask id="b" fill="#fff">
                <use xlink:href="#a"/>
            </mask>
            <path fill="#00629B" d="M13.314 10.545c-3.287 0-6.043 1.112-8.201 3.2V.168H.233v39.788h4.88V23.482c0-4.75 3.287-8.22 7.835-8.22 4.416 0 7.072 2.897 7.072 7.782v16.912h4.88v-17.35c0-7.21-4.647-12.061-11.586-12.061" mask="url(#b)"/>
        </g>
        <path fill="#00629B" d="M63.58 31.028c0-3.1 2.755-4.952 7.37-4.952 3.154 0 5.644.472 7.636.943v2.055c0 3.942-3.718 6.907-8.632 6.907-3.154 0-6.341-1.651-6.341-4.852v-.1h-.033zm7.735-20.112c-4.117 0-7.237 1.212-9.727 2.392l-1.03.505 1.86 4.514 1.162-.606c2.622-1.348 5.046-1.988 7.603-1.988 3.286 0 7.17 1.146 7.37 6.435-1.959-.438-4.25-.809-7.404-.809-7.636 0-12.583 3.841-12.583 9.804v.101c0 6.165 5.777 9.5 11.255 9.5 4.05 0 6.873-1.515 8.765-3.166v2.527h4.848V22.437c-.067-7.175-4.582-11.521-12.119-11.521zM91.07 15.834v-4.48h-4.88v28.838h4.88V28.165c0-8.288 5.046-11.994 10.093-11.994h1.46v-5.255h-1.161c-3.951 0-7.736 1.684-10.392 4.918M116.402 35.812c-2.756 0-4.018-1.213-4.018-3.908V16.137h9.13v-5.222h-9.13V2.897h-4.88v8.018h-3.287v5.222h3.287v16.037c0 5.222 3.254 8.456 8.5 8.456 1.726 0 3.187-.337 4.747-1.045l.698-.336v-5.02l-1.694.775c-1.36.606-2.257.808-3.353.808"/>
        <path fill="#00629B" d="M134.63 15.464c5.013 0 7.37 3.84 8 7.816h-16.168c.83-4.582 4.117-7.816 8.167-7.816m.1-4.75c-7.603 0-13.546 6.569-13.546 14.991v.101c0 8.558 6.01 14.992 13.944 14.992 5.976 0 9.363-2.863 11.654-5.356l.83-.91-3.52-3.167-.796.876c-2.358 2.56-4.914 3.74-8.068 3.74-3.752 0-7.902-2.493-8.865-7.985h21.348l.067-1.078.066-1.078v-.101c.033-8.827-5.378-15.026-13.114-15.026M165.738 10.915c-3.984-.168-7.735 1.685-10.392 4.92v-4.482h-4.88v28.839h4.88V28.165c0-8.288 5.047-11.994 10.094-11.994h1.46v-5.188l-1.162-.068zM25.764 32.645c-2.59 2.19-5.146 3.167-8.3 3.167-7.006 0-12.484-6.57-12.484-14.992 0-8.49 5.379-14.89 12.484-14.89 3.021 0 5.478.909 7.968 2.93l.83.674 3.619-3.672-.996-.842C26.826 3.268 23.44.943 17.53.943 7.537.943 0 9.534 0 20.921c0 11.32 7.47 19.877 17.397 19.877 6.043 0 9.562-2.594 11.687-4.548l.93-.842-3.387-3.436-.863.673z"/>
        <path fill="#787878" d="M2.922 49.86c0-2.155 1.56-3.907 3.818-3.907 1.361 0 2.191.472 2.888 1.179l-.83.977c-.597-.573-1.228-.943-2.058-.943-1.395 0-2.457 1.179-2.457 2.661v.034c0 1.482 1.03 2.661 2.457 2.661.896 0 1.494-.37 2.125-.977l.83.842c-.764.809-1.627 1.314-2.988 1.314-2.192.034-3.785-1.684-3.785-3.84M20.684 49.86c0-1.481-1.062-2.694-2.523-2.694s-2.49 1.179-2.49 2.661v.034c0 1.449 1.062 2.661 2.523 2.661 1.46 0 2.49-1.179 2.49-2.661m-6.374 0c0-2.123 1.593-3.908 3.884-3.908 2.258 0 3.851 1.752 3.851 3.874v.034c0 2.122-1.593 3.874-3.884 3.874-2.258 0-3.851-1.752-3.851-3.874M27.424 46.088h1.394l2.258 3.537 2.258-3.537h1.394V53.6h-1.295v-5.39l-2.324 3.537h-.033l-2.324-3.504V53.6h-1.295v-7.513zM40.405 46.088H41.8l2.257 3.537 2.258-3.537h1.394V53.6h-1.294v-5.39l-2.324 3.537h-.034l-2.324-3.504V53.6H40.44v-7.513zM53.254 50.433v-4.312h1.295V50.4c0 1.381.697 2.122 1.86 2.122 1.161 0 1.858-.707 1.858-2.089v-4.312h1.295v4.245c0 2.257-1.261 3.37-3.187 3.37-1.892 0-3.12-1.146-3.12-3.303M65.173 46.088h1.195l3.951 5.188v-5.188h1.295V53.6h-1.096l-4.083-5.357V53.6H65.14v-7.513z"/>
        <mask id="d" fill="#fff">
            <use xlink:href="#c"/>
        </mask>
        <path fill="#787878" d="M77.391 53.6h1.295v-7.512H77.39zM84.164 49.86c0-2.155 1.56-3.907 3.818-3.907 1.362 0 2.192.472 2.888 1.179l-.83.977c-.597-.573-1.228-.943-2.058-.943-1.394 0-2.457 1.179-2.457 2.661v.034c0 1.482 1.03 2.661 2.457 2.661.896 0 1.494-.37 2.125-.977l.83.842c-.763.809-1.627 1.314-2.988 1.314-2.191.034-3.785-1.684-3.785-3.84M100.565 50.636l-1.295-2.999-1.261 2.999h2.556zm-1.859-4.582h1.195l3.254 7.547h-1.361l-.764-1.82h-3.486l-.764 1.82h-1.328l3.254-7.547zM109.098 47.334h-2.358v-1.213h6.01v1.213h-2.358v6.3h-1.294zM118.029 53.6h1.295v-7.512h-1.295zM131.143 49.86c0-1.481-1.062-2.694-2.523-2.694s-2.49 1.179-2.49 2.661v.034c0 1.449 1.062 2.661 2.523 2.661 1.46 0 2.49-1.179 2.49-2.661m-6.374 0c0-2.123 1.593-3.908 3.884-3.908 2.258 0 3.852 1.752 3.852 3.874v.034c0 2.122-1.594 3.874-3.885 3.874-2.258 0-3.851-1.752-3.851-3.874M137.883 46.088h1.195l3.951 5.188v-5.188h1.295V53.6h-1.096l-4.083-5.357V53.6h-1.295v-7.513zM149.536 52.522l.797-.943c.697.606 1.428.977 2.324.977.797 0 1.295-.37 1.295-.943v-.034c0-.539-.299-.842-1.66-1.145-1.56-.371-2.457-.843-2.457-2.258v-.033c0-1.28 1.063-2.19 2.523-2.19 1.063 0 1.926.337 2.69.943l-.698 1.01c-.664-.505-1.328-.774-1.992-.774-.763 0-1.195.404-1.195.876v.034c0 .572.332.842 1.76 1.179 1.56.37 2.357.943 2.357 2.19v.033c0 1.415-1.096 2.257-2.656 2.257-1.129 0-2.191-.404-3.088-1.179" mask="url(#d)"/>
    </g>
</svg>
